REM DIRINDEX 1\2,1\3,1\4,1\6,1\5\7,1\5\8
REM DIRNAME cjc114,folder01,folder02,folder03,folder04,folder05,folder06,folder07
TITLE ""
FILE "DB4500_5th_3B_18.mp3" MP3
  TRACK 01 AUDIO
    TITLE "0:"
    INDEX 01 00:00:00
  TRACK 02 AUDIO
    TITLE "2:cjc114_2251"
    INDEX 01 00:00:03
  TRACK 03 AUDIO
    TITLE "0:"
    INDEX 01 00:01:07
  TRACK 04 AUDIO
    TITLE "3:cjc114_2252"
    INDEX 01 00:01:34
  TRACK 05 AUDIO
    TITLE "0:"
    INDEX 01 00:02:43
  TRACK 06 AUDIO
    TITLE "4:cjc114_2253"
    INDEX 01 00:02:73
  TRACK 07 AUDIO
    TITLE "0:"
    INDEX 01 00:05:65
  TRACK 08 AUDIO
    TITLE "2:cjc114_2254"
    INDEX 01 00:06:43
  TRACK 09 AUDIO
    TITLE "0:"
    INDEX 01 00:09:32
  TRACK 10 AUDIO
    TITLE "3:cjc114_2255"
    INDEX 01 00:09:63
  TRACK 11 AUDIO
    TITLE "0:"
    INDEX 01 00:10:63
  TRACK 12 AUDIO
    TITLE "4:cjc114_2256"
    INDEX 01 00:11:15
  TRACK 13 AUDIO
    TITLE "0:"
    INDEX 01 00:14:41
  TRACK 14 AUDIO
    TITLE "2:cjc114_2257"
    INDEX 01 00:15:21
  TRACK 15 AUDIO
    TITLE "0:"
    INDEX 01 00:16:24
  TRACK 16 AUDIO
    TITLE "3:cjc114_2258"
    INDEX 01 00:16:53
  TRACK 17 AUDIO
    TITLE "0:"
    INDEX 01 00:17:57
  TRACK 18 AUDIO
    TITLE "4:cjc114_2259"
    INDEX 01 00:18:09
  TRACK 19 AUDIO
    TITLE "0:"
    INDEX 01 00:22:34
  TRACK 20 AUDIO
    TITLE "2:cjc114_2260"
    INDEX 01 00:23:12
  TRACK 21 AUDIO
    TITLE "0:"
    INDEX 01 00:24:37
  TRACK 22 AUDIO
    TITLE "3:cjc114_2261"
    INDEX 01 00:24:65
  TRACK 23 AUDIO
    TITLE "0:"
    INDEX 01 00:26:07
  TRACK 24 AUDIO
    TITLE "4:cjc114_2262"
    INDEX 01 00:26:34
  TRACK 25 AUDIO
    TITLE "0:"
    INDEX 01 00:30:14
  TRACK 26 AUDIO
    TITLE "2:cjc114_2263"
    INDEX 01 00:30:67
  TRACK 27 AUDIO
    TITLE "0:"
    INDEX 01 00:32:15
  TRACK 28 AUDIO
    TITLE "3:cjc114_2264"
    INDEX 01 00:32:47
  TRACK 29 AUDIO
    TITLE "0:"
    INDEX 01 00:33:48
  TRACK 30 AUDIO
    TITLE "4:cjc114_2265"
    INDEX 01 00:34:00
  TRACK 31 AUDIO
    TITLE "0:"
    INDEX 01 00:36:66
  TRACK 32 AUDIO
    TITLE "2:cjc114_2266"
    INDEX 01 00:37:44
  TRACK 33 AUDIO
    TITLE "0:"
    INDEX 01 00:38:53
  TRACK 34 AUDIO
    TITLE "3:cjc114_2267"
    INDEX 01 00:39:05
  TRACK 35 AUDIO
    TITLE "0:"
    INDEX 01 00:40:09
  TRACK 36 AUDIO
    TITLE "4:cjc114_2268"
    INDEX 01 00:40:38
  TRACK 37 AUDIO
    TITLE "0:"
    INDEX 01 00:43:48
  TRACK 38 AUDIO
    TITLE "2:cjc114_2269"
    INDEX 01 00:44:28
  TRACK 39 AUDIO
    TITLE "0:"
    INDEX 01 00:46:68
  TRACK 40 AUDIO
    TITLE "3:cjc114_2270"
    INDEX 01 00:47:23
  TRACK 41 AUDIO
    TITLE "0:"
    INDEX 01 00:48:73
  TRACK 42 AUDIO
    TITLE "4:cjc114_2271"
    INDEX 01 00:49:27
  TRACK 43 AUDIO
    TITLE "0:"
    INDEX 01 00:52:37
  TRACK 44 AUDIO
    TITLE "4:cjc114_2272"
    INDEX 01 00:53:17
  TRACK 45 AUDIO
    TITLE "0:"
    INDEX 01 00:56:39
  TRACK 46 AUDIO
    TITLE "2:cjc114_2273"
    INDEX 01 00:57:17
  TRACK 47 AUDIO
    TITLE "0:"
    INDEX 01 00:58:22
  TRACK 48 AUDIO
    TITLE "3:cjc114_2274"
    INDEX 01 00:58:50
  TRACK 49 AUDIO
    TITLE "0:"
    INDEX 01 01:00:17
  TRACK 50 AUDIO
    TITLE "4:cjc114_2275"
    INDEX 01 01:00:45
  TRACK 51 AUDIO
    TITLE "0:"
    INDEX 01 01:05:09
  TRACK 52 AUDIO
    TITLE "2:cjc114_2276"
    INDEX 01 01:05:62
  TRACK 53 AUDIO
    TITLE "0:"
    INDEX 01 01:07:04
  TRACK 54 AUDIO
    TITLE "3:cjc114_2277"
    INDEX 01 01:07:33
  TRACK 55 AUDIO
    TITLE "0:"
    INDEX 01 01:09:01
  TRACK 56 AUDIO
    TITLE "4:cjc114_2278"
    INDEX 01 01:09:28
  TRACK 57 AUDIO
    TITLE "0:"
    INDEX 01 01:12:11
  TRACK 58 AUDIO
    TITLE "4:cjc114_2279"
    INDEX 01 01:12:48
  TRACK 59 AUDIO
    TITLE "0:"
    INDEX 01 01:16:63
  TRACK 60 AUDIO
    TITLE "2:cjc114_2280"
    INDEX 01 01:17:45
  TRACK 61 AUDIO
    TITLE "0:"
    INDEX 01 01:18:53
  TRACK 62 AUDIO
    TITLE "3:cjc114_2281"
    INDEX 01 01:19:05
  TRACK 63 AUDIO
    TITLE "0:"
    INDEX 01 01:20:46
  TRACK 64 AUDIO
    TITLE "4:cjc114_2282"
    INDEX 01 01:20:73
  TRACK 65 AUDIO
    TITLE "0:"
    INDEX 01 01:23:58
  TRACK 66 AUDIO
    TITLE "2:cjc114_2283"
    INDEX 01 01:24:37
  TRACK 67 AUDIO
    TITLE "0:"
    INDEX 01 01:25:64
  TRACK 68 AUDIO
    TITLE "3:cjc114_2284"
    INDEX 01 01:26:17
  TRACK 69 AUDIO
    TITLE "0:"
    INDEX 01 01:27:59
  TRACK 70 AUDIO
    TITLE "4:cjc114_2285"
    INDEX 01 01:28:12
  TRACK 71 AUDIO
    TITLE "0:"
    INDEX 01 01:32:29
